<?xml version="1.0" encoding="UTF-8"?>
<svg id="Layer_2" data-name="Layer 2" xmlns="http://www.w3.org/2000/svg" viewBox="0 0 732.56 298.51">
  <defs>
    <style>
      .cls-1 {
        fill: #2a353f;
        stroke-width: 0px;
      }
    </style>
  </defs>
  <g id="todoo">
    <g>
      <path class="cls-1" d="M628.79,207.84c-6.27-6.83-11.22-15.27-14.87-25.32-3.65-10.05-5.48-21-5.48-32.84,0-11.32,1.68-21.84,5.04-31.57,3.36-9.73,7.95-18.01,13.76-24.84,4.91-5.77,10.42-10.12,16.55-13.07.14-1.06.28-2.13.41-3.21-3.72.91-7.37,2.13-10.94,3.68-8.7,3.77-16.48,9.21-23.35,16.32-9.37,9.88-15.66,21.38-18.85,34.52-1.45,5.98-2.18,12.11-2.18,18.39s.73,12.43,2.18,18.45c3.2,13.13,9.48,24.62,18.85,34.46,9.91,10.19,21.39,16.86,34.44,20.01-.15-1.21-.3-2.41-.45-3.6-5.51-2.62-10.55-6.41-15.12-11.39Z"/>
      <path class="cls-1" d="M711.53,96.99c-6.87-7.12-14.65-12.56-23.35-16.32-3.66-1.59-7.4-2.83-11.22-3.75.12,1,.25,2,.38,2.99,6.41,3.01,12.16,7.52,17.24,13.53,5.78,6.83,10.32,15.09,13.65,24.78,3.32,9.69,4.99,20.17,4.99,31.45,0,11.81-1.81,22.73-5.42,32.76-3.61,10.03-8.54,18.45-14.77,25.26-4.76,5.2-10.02,9.13-15.81,11.79-.15,1.13-.29,2.26-.43,3.41,13.17-3.12,24.75-9.81,34.73-20.08,6.83-7.12,12.04-15.22,15.64-24.3,3.6-9.08,5.39-18.62,5.39-28.61,0-9.99-1.8-19.53-5.39-28.61-3.6-9.08-8.81-17.18-15.64-24.3Z"/>
      <path class="cls-1" d="M630.5,149.26s.04,0,.06,0c.02,0,.04,0,.06,0-.02,0-.04,0-.06,0s-.04,0-.06,0Z"/>
      <path class="cls-1" d="M664.95,77.43c-.09-.76-.18-1.53-.27-2.3-2.59-22.07-4.08-47.73-4.09-75.13-.01,27.41-1.5,53.08-4.1,75.15-.09.77-.18,1.54-.28,2.3-5.26,42.98-14.76,71.71-25.6,71.81,10.95.1,20.53,29.41,25.76,73.11.09.76.18,1.53.27,2.3,2.5,21.77,3.93,46.98,3.94,73.85.01-26.86,1.44-52.06,3.94-73.83.09-.77.18-1.53.27-2.29,5.23-43.72,14.81-73.04,25.76-73.14-10.84-.1-20.34-28.84-25.6-71.83Z"/>
      <g>
        <path class="cls-1" d="M52.19,226.72c-1.51,0-3.26-.18-5.27-.54-2.01-.36-3.96-1.41-5.86-3.14-1.62-1.56-2.61-3.28-2.97-5.14-.36-1.87-.54-3.86-.54-5.98V78.83H0v-3.35h37.56v-5.94c.11-10.15.17-23.59.17-40.32,0-6.41-.06-10.21-.17-11.38-.5-2.9-2.06-4.88-4.68-5.94-2.4-.95-4.8-1.42-7.19-1.42h-.75v-3.35h38.48v68.34h37.89v3.35h-37.89v132.49c0,.89.08,1.79.25,2.68.45,1.79,1.87,2.68,4.27,2.68,2.79,0,6.41-1.92,10.87-5.77l2.26,2.42c-3.46,3.4-7.44,6.3-11.96,8.7-5.85,3.12-11.49,4.68-16.9,4.68Z"/>
        <path class="cls-1" d="M163.11,224.71c-9.93,0-19.39-1.87-28.4-5.6-9.01-3.74-17.05-9.13-24.13-16.18-7.08-7.05-12.49-15.1-16.23-24.13-3.74-9.03-5.6-18.51-5.6-28.44s1.87-19.39,5.6-28.4c3.74-9,9.14-17.05,16.23-24.13,7.08-7.08,15.12-12.48,24.13-16.19,9-3.71,18.47-5.56,28.4-5.56,14.83,0,28.52,4.13,41.07,12.38,5.91,3.9,11.12,8.53,15.64,13.88,11.77,14.28,17.65,30.28,17.65,48.01,0,9.93-1.87,19.41-5.6,28.44-3.74,9.03-9.15,17.08-16.23,24.13-7.08,7.05-15.13,12.45-24.13,16.18-9.01,3.74-18.47,5.6-28.4,5.6ZM162.94,221.36c8.31-.17,15.84-3.42,22.58-9.74,6.75-6.33,12.14-14.86,16.19-25.6,4.04-10.73,6.06-22.62,6.06-35.67s-2.02-24.94-6.06-35.67c-4.04-10.73-9.44-19.25-16.19-25.55-6.75-6.3-14.3-9.54-22.67-9.7-8.37,0-16.03,3.32-23,9.95-6.69,6.36-12.03,14.88-16.02,25.55-3.99,10.68-5.98,22.49-5.98,35.42s1.99,24.83,5.98,35.51c3.99,10.68,9.33,19.2,16.02,25.55,6.97,6.64,14.61,9.95,22.92,9.95h.17Z"/>
        <path class="cls-1" d="M395.72,224.88c-2.29,0-4.57-.31-6.86-.92-4.41-1.56-7.03-4.24-7.86-8.03-.61-2.68-.92-5.46-.92-8.37,0-1.17.04-2.38.12-3.64.08-1.25.13-2.5.13-3.72-8.92,9.87-19.55,16.81-31.87,20.83-7.25,2.34-14.64,3.51-22.17,3.51-5.19,0-10.46-.56-15.81-1.67-11.43-2.62-21.61-7.67-30.53-15.14-8.92-7.47-15.72-16.59-20.41-27.35-3.96-9.37-5.94-19.01-5.94-28.94,0-1.67.21-5.87.63-12.59.42-6.72,3.61-15.18,9.58-25.39,6.13-10.21,14.16-18.43,24.09-24.67,11.76-7.36,24.54-11.04,38.31-11.04,9.37,0,18.82,1.92,28.36,5.77s18.12,10.04,25.76,18.57V17.69c0-2.29-.61-4.1-1.84-5.44-2.23-2.29-5.6-3.43-10.12-3.43h-.59v-3.35h38.31l-.08,166.87c0,21.41.03,33.71.08,36.89.22,3.18,1.28,4.88,3.18,5.1l1,.08c1.67,0,3.58-.59,5.73-1.76,2.15-1.17,3.97-2.4,5.48-3.68l2.34,2.42c-4.41,4.29-9.79,7.86-16.14,10.71-4.02,1.84-8,2.76-11.96,2.76ZM329.39,221.2c1.17,0,2.37-.08,3.6-.25h.42c9.54-1.06,18.3-3.86,26.31-8.41,8-4.54,14.87-10.38,20.62-17.52v-87.74c-4.02-5.02-8.74-9.49-14.18-13.42-5.44-3.93-11.29-7.04-17.57-9.33-6.27-2.29-12.67-3.43-19.2-3.43l-4.18-.08-2.01.08c-10.87,5.3-19.66,13.02-26.35,23.17-9.09,13.88-13.63,29.69-13.63,47.43,0,5.69.79,12.77,2.38,21.25,1.59,8.48,5.52,17.33,11.79,26.56,6.27,9.23,14.65,16.46,25.14,21.71h6.86Z"/>
        <path class="cls-1" d="M496.43,224.71c-9.93,0-19.39-1.87-28.4-5.6-9.01-3.74-17.05-9.13-24.13-16.18-7.08-7.05-12.49-15.1-16.23-24.13-3.74-9.03-5.6-18.51-5.6-28.44s1.87-19.39,5.6-28.4c3.74-9,9.14-17.05,16.23-24.13s15.12-12.48,24.13-16.19c9-3.71,18.47-5.56,28.4-5.56,14.83,0,28.52,4.13,41.07,12.38,5.91,3.9,11.12,8.53,15.64,13.88,11.76,14.28,17.65,30.28,17.65,48.01,0,9.93-1.87,19.41-5.6,28.44-3.74,9.03-9.15,17.08-16.23,24.13-7.08,7.05-15.13,12.45-24.13,16.18-9.01,3.74-18.47,5.6-28.4,5.6ZM496.26,221.36c8.31-.17,15.84-3.42,22.58-9.74,6.75-6.33,12.14-14.86,16.18-25.6,4.04-10.73,6.06-22.62,6.06-35.67s-2.02-24.94-6.06-35.67c-4.04-10.73-9.44-19.25-16.18-25.55-6.75-6.3-14.3-9.54-22.67-9.7-8.36,0-16.03,3.32-23,9.95-6.69,6.36-12.03,14.88-16.02,25.55-3.99,10.68-5.98,22.49-5.98,35.42s1.99,24.83,5.98,35.51c3.99,10.68,9.33,19.2,16.02,25.55,6.97,6.64,14.61,9.95,22.92,9.95h.17Z"/>
      </g>
    </g>
  </g>
</svg>