<?xml version="1.0" encoding="utf-8"?>
<!-- Generator: Adobe Illustrator 28.2.0, SVG Export Plug-In . SVG Version: 6.00 Build 0)  -->
<svg version="1.1" id="Layer_1" xmlns="http://www.w3.org/2000/svg" xmlns:xlink="http://www.w3.org/1999/xlink" x="0px" y="0px"
	 viewBox="0 0 800 800" style="enable-background:new 0 0 800 800;" xml:space="preserve">
<style type="text/css">
	.st0{fill:#EBEFF9;}
</style>
<path class="st0" d="M731.4,152.4c-17.3-17.6-40.3-27.2-64.9-27.2c-24.3,0-47.2,9.4-64.4,26.5L297.3,454.3l-99.6-98.9
	c-17.3-17.1-40.1-26.5-64.4-26.5c-24.6,0-47.7,9.6-64.9,27.1c-17.2,17.4-26.6,40.4-26.5,64.8c0.1,24.5,9.7,47.4,27.1,64.6
	l164.1,162.9c17.3,17.1,40.2,26.6,64.4,26.6c24.3,0,47.2-9.4,64.4-26.5l368.9-366.6c17.4-17.2,27-40.1,27.1-64.6
	C758,192.8,748.6,169.8,731.4,152.4z"/>
</svg>
