<?xml version="1.0" encoding="utf-8"?>
<!-- Generator: Adobe Illustrator 28.2.0, SVG Export Plug-In . SVG Version: 6.00 Build 0)  -->
<svg version="1.1" id="Layer_1" xmlns="http://www.w3.org/2000/svg" xmlns:xlink="http://www.w3.org/1999/xlink" x="0px" y="0px"
	 viewBox="0 0 800 800" style="enable-background:new 0 0 800 800;" xml:space="preserve">
<style type="text/css">
	.st0{fill:#EBEFF9;}
</style>
<path class="st0" d="M191.8,676.1l-58.5-409.4h533.3l-58.5,409.4c-4.7,32.8-32.8,57.2-66,57.2H257.8
	C224.7,733.3,196.5,708.9,191.8,676.1z M700,133.3H533.3V100c0-18.4-14.9-33.3-33.3-33.3H300c-18.4,0-33.3,14.9-33.3,33.3v33.3H100
	c-18.4,0-33.3,14.9-33.3,33.3S81.6,200,100,200h600c18.4,0,33.3-14.9,33.3-33.3S718.4,133.3,700,133.3z"/>
</svg>
