<?xml version="1.0" encoding="utf-8"?>
<!-- Generator: Adobe Illustrator 28.2.0, SVG Export Plug-In . SVG Version: 6.00 Build 0)  -->
<svg version="1.1" id="Layer_1" xmlns="http://www.w3.org/2000/svg" xmlns:xlink="http://www.w3.org/1999/xlink" x="0px" y="0px"
	 viewBox="0 0 800 800" style="enable-background:new 0 0 800 800;" xml:space="preserve">
<style type="text/css">
	.st0{fill-rule:evenodd;clip-rule:evenodd;fill:#EBEFF9;}
</style>
<path class="st0" d="M133,561.8L89.2,678.6c-4.8,12.9,1.7,27.3,14.7,32.2c5.7,2.1,11.9,2.1,17.5,0L238.2,667
	c13.4-5,25.5-12.8,35.6-22.9L612,305.8c0,0-11.8-35.4-47.1-70.7c-35.3-35.3-70.7-47.1-70.7-47.1L155.9,526.2
	C145.8,536.3,138,548.4,133,561.8z M541.3,140.8l46.1-46.1c8.3-8.3,19.3-13.5,30.8-11.6c16.2,2.7,41.1,10.7,64.5,34.2
	c23.4,23.4,31.5,48.2,34.2,64.5c1.9,11.5-3.3,22.6-11.6,30.8l-46.1,46.1c0,0-11.8-35.3-47.1-70.7
	C576.7,152.6,541.3,140.8,541.3,140.8L541.3,140.8z"/>
</svg>
