<?xml version="1.0" encoding="utf-8"?>
<!-- Generator: Adobe Illustrator 28.2.0, SVG Export Plug-In . SVG Version: 6.00 Build 0)  -->
<svg version="1.1" id="Layer_1" xmlns="http://www.w3.org/2000/svg" xmlns:xlink="http://www.w3.org/1999/xlink" x="0px" y="0px"
	 viewBox="0 0 800 800" style="enable-background:new 0 0 800 800;" xml:space="preserve">
<style type="text/css">
	.st0{fill:#2A353F;}
</style>
<path class="st0" d="M733.3,220.7v354.1c0,37.1-23.8,74.2-61.2,87.7L502,726.6c-10.2,3.4-20.4,6.7-34,6.7c-17,0-37.4-6.7-54.4-16.9
	c-6.8-6.7-17-13.5-20.4-20.2H263.9c-51,0-95.2-40.5-95.2-94.4v-33.7c0-13.5,10.2-27,27.2-27c17,0,27.2,10.1,27.2,27v33.7
	c0,23.6,20.4,40.5,40.8,40.5h112.2V156.7H263.9c-23.8,0-40.8,16.9-40.8,40.5v33.7c0,13.5-10.2,27-27.2,27c-17,0-27.2-13.5-27.2-27
	v-33.7c0-50.6,40.8-94.4,95.2-94.4h129.3c6.8-6.7,13.6-13.5,20.4-20.2c27.2-16.9,57.8-20.2,88.4-10.1l170.1,64.1
	C706.1,146.5,733.3,183.6,733.3,220.7z"/>
<path class="st0" d="M161.9,493.9c-6.8,0-13.6-3.4-17-6.7l-68-67.4c-3.4-3.4-3.4-6.7-6.8-6.7c0-3.4-3.4-6.7-3.4-10.1
	c0-3.4,0-6.7,3.4-10.1c0-3.4,3.4-6.7,6.8-6.7l68-67.4c10.2-10.1,27.2-10.1,37.4,0c10.2,10.1,10.2,27,0,37.1l-23.8,23.6H298
	c13.6,0,27.2,10.1,27.2,27c0,16.9-13.6,20.2-27.2,20.2H155.1l23.8,23.6c10.2,10.1,10.2,27,0,37.1
	C175.5,490.5,168.7,493.9,161.9,493.9z"/>
</svg>
