<?xml version="1.0" encoding="utf-8"?>
<!-- Generator: Adobe Illustrator 28.2.0, SVG Export Plug-In . SVG Version: 6.00 Build 0)  -->
<svg version="1.1" id="Layer_1" xmlns="http://www.w3.org/2000/svg" xmlns:xlink="http://www.w3.org/1999/xlink" x="0px" y="0px"
	 viewBox="0 0 800 800" style="enable-background:new 0 0 800 800;" xml:space="preserve">
<style type="text/css">
	.st0{fill-rule:evenodd;clip-rule:evenodd;fill:#2A353F;}
</style>
<path class="st0" d="M200,266.7c0-110.5,89.5-200,200-200c110.5,0,200,89.5,200,200c0,110.5-89.5,200-200,200
	C289.5,466.7,200,377.1,200,266.7z"/>
<path class="st0" d="M181,563.4c54.2-22.7,126.4-30.1,219-30.1c92.4,0,164.5,7.3,218.6,29.9c58.1,24.2,93.7,65.4,112.7,125.4
	c7.1,22.3-9.6,44.7-32.7,44.7H101.2c-23,0-39.6-22.3-32.6-44.5C87.5,628.9,123,587.7,181,563.4z"/>
</svg>
